<svg viewBox="0 0 1000 1000"
  xmlns="http://www.w3.org/2000/svg">
  <defs>
    <clipPath id="shape">
      <path fill="currentColor" d="M865.5,628Q756,756,628,819Q500,882,337.5,853.5Q175,825,97,662.5Q19,500,130,370.5Q241,241,370.5,170.5Q500,100,652.5,147.5Q805,195,890,347.5Q975,500,865.5,628Z"></path>
    </clipPath>
  </defs>
  <g clip-path="url(#shape)">
    <path fill="#444cf7" d="M865.5,628Q756,756,628,819Q500,882,337.5,853.5Q175,825,97,662.5Q19,500,130,370.5Q241,241,370.5,170.5Q500,100,652.5,147.5Q805,195,890,347.5Q975,500,865.5,628Z" />
  </g>
</svg>